<?xml version="1.0" standalone="no"?>
<!DOCTYPE svg PUBLIC "-//W3C//DTD SVG 20010904//EN"
 "http://www.w3.org/TR/2001/REC-SVG-20010904/DTD/svg10.dtd">
<svg version="1.0" xmlns="http://www.w3.org/2000/svg"
 width="512.000000pt" height="512.000000pt" viewBox="0 0 512.000000 512.000000"
 preserveAspectRatio="xMidYMid meet">

<g transform="translate(0.000000,512.000000) scale(0.100000,-0.100000)"
fill="#000000" stroke="none">
<path d="M1490 4320 c-421 -59 -761 -293 -976 -672 -53 -94 -99 -209 -130
-333 -26 -101 -28 -124 -28 -295 0 -172 2 -192 28 -290 16 -58 48 -146 71
-196 108 -234 234 -364 625 -652 151 -111 403 -297 560 -413 288 -213 434
-321 747 -553 l173 -127 102 75 c129 95 353 261 568 420 91 67 238 176 326
242 89 65 235 173 325 240 90 66 227 167 304 224 310 228 472 447 552 747 24
89 26 116 27 283 0 177 -1 191 -32 310 -68 261 -212 498 -409 673 -348 307
-794 399 -1233 254 -52 -17 -194 -80 -314 -140 l-219 -110 -221 112 c-234 118
-345 160 -491 186 -113 20 -270 27 -355 15z m296 -294 c131 -23 222 -60 506
-203 l266 -134 252 126 c297 149 363 176 492 204 198 43 433 15 602 -71 367
-187 597 -582 573 -983 -11 -171 -54 -303 -144 -437 -71 -106 -160 -192 -333
-320 -85 -63 -301 -222 -480 -354 -179 -133 -466 -345 -638 -472 -172 -128
-317 -232 -322 -232 -6 0 -96 64 -202 143 -106 78 -251 185 -322 237 -70 52
-228 169 -350 259 -121 91 -324 241 -451 334 -126 93 -258 194 -292 224 -124
108 -228 274 -275 440 -19 67 -22 101 -22 243 1 149 4 174 28 255 153 515 622
827 1112 741z"/>
</g>
</svg>
