<?xml version="1.0" standalone="no"?>
<!DOCTYPE svg PUBLIC "-//W3C//DTD SVG 20010904//EN"
 "http://www.w3.org/TR/2001/REC-SVG-20010904/DTD/svg10.dtd">
<svg version="1.0" xmlns="http://www.w3.org/2000/svg"
 width="371.000000pt" height="480.000000pt" viewBox="0 0 371.000000 480.000000"
 preserveAspectRatio="xMidYMid meet">

<g transform="translate(0.000000,480.000000) scale(0.100000,-0.100000)"
fill="#000000" stroke="none">
<path d="M1690 4790 c-166 -8 -255 -19 -418 -51 -315 -62 -598 -213 -822 -438
-251 -251 -391 -537 -430 -881 -16 -139 -17 -419 -1 -448 l12 -23 397 6 c218
3 452 8 519 11 139 7 133 1 133 111 0 104 35 256 79 348 71 146 201 263 370
333 292 121 680 50 862 -157 112 -126 156 -278 137 -476 -11 -120 -39 -205
-104 -315 -67 -112 -175 -225 -313 -328 -193 -144 -394 -306 -438 -354 -142
-156 -224 -319 -258 -515 -19 -106 -30 -324 -21 -387 l7 -46 212 1 c117 1 322
5 457 8 l245 6 8 83 c28 317 106 425 505 707 288 203 372 269 472 366 193 190
304 387 367 649 20 84 26 141 30 285 5 161 3 191 -17 285 -73 344 -245 623
-515 834 -152 119 -298 194 -515 264 -296 96 -628 138 -960 122z"/>
<path d="M1696 775 c-140 -39 -256 -126 -308 -233 -29 -58 -33 -76 -33 -147 0
-103 31 -171 112 -245 209 -191 567 -191 776 0 74 68 109 141 115 240 4 72 2
84 -26 145 -19 40 -51 85 -82 115 -54 53 -164 112 -240 129 -63 15 -255 12
-314 -4z"/>
</g>
</svg>
