<?xml version="1.0" standalone="no"?>
<!DOCTYPE svg PUBLIC "-//W3C//DTD SVG 20010904//EN"
 "http://www.w3.org/TR/2001/REC-SVG-20010904/DTD/svg10.dtd">
<svg version="1.0" xmlns="http://www.w3.org/2000/svg"
 width="200.000000pt" height="200.000000pt" viewBox="0 0 200.000000 200.000000"
 preserveAspectRatio="xMidYMid meet">

<g transform="translate(0.000000,200.000000) scale(0.100000,-0.100000)"
fill="#000000" stroke="none">
<path d="M1020 1506 c0 -8 14 -16 33 -19 40 -6 52 0 36 19 -15 18 -69 19 -69
0z"/>
<path d="M1444 1488 c-58 -52 -64 -75 -64 -273 l0 -175 25 0 25 0 0 -125 0
-125 40 0 40 0 0 365 c0 406 3 393 -66 333z m36 -213 l0 -205 -36 0 -35 0 3
168 c3 167 3 169 31 205 15 20 30 37 33 37 2 0 4 -92 4 -205z m0 -370 c0 -50
-4 -85 -10 -85 -6 0 -10 35 -10 85 0 50 4 85 10 85 6 0 10 -35 10 -85z"/>
<path d="M1120 1487 c0 -8 23 -24 50 -37 28 -13 71 -44 96 -68 31 -31 48 -42
55 -35 17 17 -51 85 -120 122 -65 34 -81 38 -81 18z"/>
<path d="M490 1360 c0 -96 1 -100 30 -133 27 -31 30 -42 30 -101 0 -37 -4 -66
-10 -66 -6 0 -10 -52 -10 -135 l0 -135 65 0 65 0 0 135 c0 83 -4 135 -10 135
-6 0 -10 29 -10 66 0 59 3 70 30 101 29 33 30 37 30 133 l0 100 -105 0 -105 0
0 -100z m60 -11 c0 -60 3 -80 13 -77 8 3 13 31 15 81 2 58 6 77 17 77 11 0 15
-18 17 -75 2 -42 7 -75 13 -75 6 0 11 33 13 75 2 58 6 75 17 75 24 0 21 -151
-4 -181 -26 -32 -86 -32 -112 0 -25 31 -28 181 -4 181 12 0 15 -16 15 -81z
m60 -224 c0 -51 -3 -65 -15 -65 -12 0 -15 14 -15 65 0 51 3 65 15 65 12 0 15
-14 15 -65z m20 -200 l0 -105 -35 0 -35 0 0 105 0 105 35 0 35 0 0 -105z"/>
<path d="M950 1431 c-93 -29 -177 -108 -206 -193 -20 -62 -15 -177 10 -226 94
-182 322 -226 469 -92 99 90 129 220 77 338 -57 130 -222 212 -350 173z m156
-36 c196 -58 250 -324 93 -458 -140 -120 -365 -61 -424 112 -40 117 4 251 101
312 81 50 145 59 230 34z"/>
<path d="M985 1371 c-55 -14 -105 -43 -136 -80 -125 -151 -21 -380 174 -381
32 0 72 6 90 13 83 35 147 130 147 217 0 98 -76 196 -174 225 -54 16 -57 16
-101 6z m15 -45 c-38 -13 -45 -13 -35 3 3 6 21 11 38 10 l32 0 -35 -13z m80 4
c0 -6 -12 -22 -26 -35 -17 -16 -25 -31 -21 -44 3 -12 -3 -27 -14 -37 -40 -36
-12 -114 42 -114 28 0 29 -1 29 -50 0 -36 5 -55 19 -69 19 -19 19 -20 -11 -30
-41 -14 -111 -14 -143 1 -29 13 -30 17 -11 43 7 11 16 34 20 51 7 29 3 34 -44
68 -27 20 -54 36 -59 36 -22 0 -20 22 4 60 16 25 33 40 45 40 11 0 21 6 22 13
0 6 2 17 3 22 2 6 3 17 4 25 1 12 3 13 10 1 7 -11 15 -11 47 -1 22 7 43 16 49
21 13 12 35 11 35 -1z m66 -26 c62 -41 89 -140 50 -183 -9 -10 -16 -29 -16
-43 0 -28 -39 -93 -55 -90 -5 1 -12 26 -15 56 -6 63 -13 73 -55 78 -44 5 -57
48 -26 82 16 17 21 31 16 45 -5 16 -1 23 19 31 14 5 26 16 26 25 0 20 24 19
56 -1z m-243 -39 c-13 -5 -32 -23 -43 -40 -14 -21 -20 -25 -20 -13 0 10 17 36
37 59 32 36 38 39 44 22 4 -13 0 -21 -18 -28z m5 -159 c47 -32 51 -49 24 -101
l-19 -34 -31 32 c-35 36 -52 75 -52 117 0 34 9 32 78 -14z m317 2 c-7 -32 -51
-118 -61 -118 -2 0 3 14 12 31 8 17 17 41 18 53 2 19 26 66 34 66 2 0 1 -15
-3 -32z"/>
<path d="M1660 585 c0 -86 3 -107 15 -112 21 -7 32 4 17 19 -8 8 -12 47 -12
105 0 55 -4 93 -10 93 -6 0 -10 -42 -10 -105z"/>
<path d="M300 665 c0 -10 10 -15 30 -15 l29 0 3 -85 c4 -111 22 -111 26 0 l3
85 30 0 c20 0 29 4 27 13 -3 8 -30 13 -76 15 -60 2 -72 0 -72 -13z"/>
<path d="M957 673 c-15 -14 -6 -23 23 -23 l29 0 3 -85 c4 -111 22 -111 26 0
l3 85 29 0 c20 0 30 5 30 15 0 12 -14 15 -68 15 -38 0 -72 -3 -75 -7z"/>
<path d="M740 650 c0 -10 -8 -24 -17 -30 -13 -8 -14 -13 -5 -16 7 -4 12 -25
12 -54 0 -52 18 -80 51 -80 10 0 19 6 19 14 0 8 -8 13 -17 12 -15 -1 -19 9
-21 52 -3 47 -1 52 17 52 12 0 21 5 21 10 0 6 -9 10 -20 10 -15 0 -20 7 -20
25 0 14 -4 25 -10 25 -5 0 -10 -9 -10 -20z"/>
<path d="M478 619 c-28 -16 -21 -25 16 -21 46 5 58 -23 14 -32 -41 -8 -58 -23
-58 -51 0 -35 26 -51 60 -38 20 8 31 8 39 0 8 -8 11 9 11 61 0 60 -3 73 -19
82 -24 12 -41 12 -63 -1z m62 -89 c0 -28 -38 -46 -57 -27 -13 12 -12 16 2 31
23 23 55 21 55 -4z"/>
<path d="M618 619 c-10 -5 -18 -18 -18 -28 0 -19 29 -51 47 -51 6 0 16 -6 22
-14 18 -22 -13 -42 -44 -28 -15 7 -27 8 -30 2 -3 -6 6 -15 20 -22 38 -17 79 0
83 35 3 22 -3 30 -33 44 -43 20 -44 50 -2 45 29 -3 37 12 11 22 -22 8 -36 7
-56 -5z"/>
<path d="M846 609 c-20 -16 -26 -29 -26 -59 0 -59 44 -93 94 -74 26 10 18 27
-9 20 -18 -5 -31 0 -47 16 l-23 23 53 3 c50 3 52 4 52 32 0 18 -8 34 -22 44
-29 21 -40 20 -72 -5z m68 -26 c9 -22 3 -25 -40 -21 l-39 3 22 22 c24 24 47
22 57 -4z"/>
<path d="M1157 613 c-11 -11 -17 -13 -17 -5 0 7 -4 12 -10 12 -6 0 -10 -32
-10 -75 0 -43 4 -75 10 -75 6 0 10 21 10 46 0 55 14 84 40 84 11 0 20 7 20 15
0 20 -22 19 -43 -2z"/>
<path d="M1237 621 c-32 -12 -23 -26 14 -23 48 4 62 -23 17 -32 -41 -8 -58
-23 -58 -51 0 -35 26 -51 60 -38 20 8 31 8 39 0 8 -8 11 8 11 55 0 87 -24 113
-83 89z m63 -91 c0 -10 -10 -24 -21 -31 -17 -9 -25 -8 -38 6 -15 15 -15 17 3
31 29 20 56 18 56 -6z"/>
<path d="M1526 609 c-64 -50 -7 -162 68 -133 26 10 18 27 -9 20 -18 -5 -31 0
-47 16 l-23 23 53 3 c50 3 52 4 52 32 0 18 -8 34 -22 44 -29 21 -40 20 -72 -5z
m74 -34 c0 -11 -12 -15 -40 -15 -37 0 -40 2 -30 19 5 11 15 21 22 24 19 6 48
-11 48 -28z"/>
<path d="M1350 616 c0 -22 55 -146 65 -146 7 0 24 32 39 71 30 82 30 79 13 79
-7 0 -22 -28 -33 -62 l-20 -62 -18 62 c-11 36 -25 62 -33 62 -7 0 -13 -2 -13
-4z"/>
</g>
</svg>
