<?xml version="1.0" standalone="no"?>
<!DOCTYPE svg PUBLIC "-//W3C//DTD SVG 20010904//EN"
 "http://www.w3.org/TR/2001/REC-SVG-20010904/DTD/svg10.dtd">
<svg version="1.0" xmlns="http://www.w3.org/2000/svg"
 width="320.000000pt" height="320.000000pt" viewBox="0 0 320.000000 320.000000"
 preserveAspectRatio="xMidYMid meet">

<g transform="translate(0.000000,320.000000) scale(0.100000,-0.100000)"
fill="#000000" stroke="none">
<path d="M588 3181 c-128 -41 -218 -143 -247 -279 -16 -75 -16 -2529 0 -2604
21 -100 73 -178 154 -232 102 -69 56 -66 1105 -66 1049 0 1003 -3 1105 66 83
55 135 135 154 239 9 43 11 365 9 1145 l-3 1085 -365 332 -365 332 -745 0
c-693 0 -749 -1 -802 -18z m1282 -381 l0 -130 -335 0 -335 0 0 -70 0 -70 339
0 339 0 27 -55 c34 -71 100 -136 173 -172 57 -28 58 -28 290 -31 l232 -3 0
-960 c0 -1032 1 -1001 -49 -1029 -13 -7 -332 -10 -953 -10 -1019 0 -962 -3
-987 57 -8 21 -11 355 -9 1291 l3 1264 28 24 28 24 605 0 604 0 0 -130z m514
-80 c112 -96 205 -178 205 -182 1 -5 -80 -8 -179 -8 -277 0 -280 3 -280 251
l0 151 24 -19 c14 -10 117 -97 230 -193z"/>
<path d="M770 2665 l0 -165 165 0 165 0 0 55 c0 52 -1 55 -25 55 -14 0 -25 2
-25 5 0 2 41 43 90 91 90 87 104 109 74 121 -10 4 -32 -11 -65 -43 l-49 -48 0
47 0 47 -165 0 -165 0 0 -165z m260 85 c0 -16 7 -20 32 -20 l32 0 -39 -40
c-21 -22 -42 -40 -45 -40 -3 0 -27 20 -55 45 -51 46 -69 53 -81 34 -10 -17
117 -141 139 -135 10 2 17 -1 17 -10 0 -11 -21 -14 -100 -14 l-100 0 0 93 c0
52 3 97 7 100 3 4 48 7 100 7 86 0 93 -1 93 -20z"/>
<path d="M770 2135 l0 -165 165 0 165 0 0 55 c0 52 -1 55 -25 55 -14 0 -25 4
-25 9 0 4 41 45 90 90 89 82 105 106 74 118 -10 4 -32 -11 -65 -43 l-49 -48 0
47 0 47 -165 0 -165 0 0 -165z m260 80 c0 -10 10 -15 32 -15 l33 0 -43 -42
-42 -42 -48 47 c-47 46 -74 58 -88 36 -10 -17 117 -141 139 -135 12 3 17 -2
17 -15 0 -18 -7 -20 -97 -17 l-98 3 -3 98 -3 97 101 0 c82 0 100 -3 100 -15z"/>
<path d="M1200 2065 l0 -65 600 0 600 0 0 65 0 65 -600 0 -600 0 0 -65z"/>
<path d="M770 1600 l0 -170 165 0 165 0 0 55 c0 53 -1 55 -27 55 -25 0 -20 8
65 93 50 51 92 98 92 105 0 7 -7 15 -16 19 -10 4 -32 -11 -65 -43 l-49 -48 0
52 0 52 -165 0 -165 0 0 -170z m260 80 c0 -16 7 -20 32 -20 l32 0 -44 -45 -44
-45 -51 50 c-51 51 -68 59 -81 39 -9 -14 115 -139 138 -139 10 0 18 -4 18 -10
0 -6 -40 -10 -100 -10 l-100 0 0 100 0 100 100 0 c93 0 100 -1 100 -20z"/>
<path d="M1200 1535 l0 -65 600 0 600 0 0 65 0 65 -600 0 -600 0 0 -65z"/>
<path d="M770 1065 l0 -165 165 0 165 0 0 165 0 165 -165 0 -165 0 0 -165z
m260 5 l0 -100 -100 0 -100 0 0 93 c0 52 3 97 7 100 3 4 48 7 100 7 l93 0 0
-100z"/>
<path d="M1200 1000 l0 -70 600 0 600 0 0 70 0 70 -600 0 -600 0 0 -70z"/>
<path d="M770 535 l0 -165 165 0 165 0 0 165 0 165 -165 0 -165 0 0 -165z
m260 -5 l0 -101 -97 3 -98 3 -3 98 -3 97 101 0 100 0 0 -100z"/>
<path d="M1200 465 l0 -65 600 0 600 0 0 65 0 65 -600 0 -600 0 0 -65z"/>
</g>
</svg>
