<?xml version="1.0" standalone="no"?>
<!DOCTYPE svg PUBLIC "-//W3C//DTD SVG 20010904//EN"
 "http://www.w3.org/TR/2001/REC-SVG-20010904/DTD/svg10.dtd">
<svg version="1.0" xmlns="http://www.w3.org/2000/svg"
 width="200.000000pt" height="200.000000pt" viewBox="0 0 200.000000 200.000000"
 preserveAspectRatio="xMidYMid meet">

<g transform="translate(0.000000,200.000000) scale(0.100000,-0.100000)"
fill="#000000" stroke="none">
<path d="M245 1095 l-16 -55 -62 0 -62 -1 25 -22 c14 -12 36 -29 49 -38 24
-15 24 -15 8 -64 -10 -27 -17 -53 -17 -58 0 -5 21 7 47 26 l48 35 47 -35 c27
-19 48 -31 48 -26 0 5 -7 31 -17 58 -16 49 -16 49 8 64 13 9 35 26 49 38 l25
22 -61 1 -60 0 -18 55 c-9 30 -19 55 -21 55 -3 0 -12 -25 -20 -55z"/>
<path d="M615 1098 l-18 -57 -66 -3 -66 -3 35 -22 c75 -49 72 -43 50 -107 -10
-31 -17 -56 -14 -56 2 0 23 14 46 30 22 16 46 30 52 30 6 0 29 -14 50 -30 22
-17 41 -29 42 -27 2 2 -4 27 -14 56 l-16 53 26 19 c15 11 37 28 50 39 l23 19
-62 1 -61 0 -20 58 -19 57 -18 -57z"/>
<path d="M1346 1095 l-17 -55 -62 0 -62 -1 23 -19 c13 -11 35 -28 49 -38 l26
-19 -16 -53 c-9 -30 -15 -56 -13 -57 2 -2 23 12 47 31 l45 34 47 -34 c26 -19
49 -34 51 -34 3 0 -4 25 -14 56 -22 64 -25 58 50 107 l35 22 -66 3 -66 3 -17
54 c-9 30 -18 55 -20 55 -1 0 -10 -25 -20 -55z m98 -65 l51 0 -39 -33 c-38
-33 -39 -34 -26 -71 6 -20 10 -39 8 -41 -2 -2 -18 7 -36 21 -32 25 -32 26 -31
112 1 79 2 84 12 50 10 -37 11 -38 61 -38z"/>
<path d="M1714 1095 l-18 -55 -60 0 -61 -1 25 -22 c14 -12 36 -29 49 -38 24
-15 24 -15 8 -64 -10 -27 -17 -53 -17 -58 0 -5 21 7 48 26 l47 35 48 -35 c26
-19 47 -31 47 -26 0 5 -7 31 -17 58 -16 49 -16 49 8 64 13 9 35 26 49 38 l25
22 -62 1 -62 0 -16 55 c-9 30 -18 55 -20 55 -2 0 -12 -25 -21 -55z m46 -52 c0
-7 20 -13 53 -15 l52 -3 -38 -25 c-33 -22 -37 -29 -33 -55 2 -16 8 -38 12 -49
6 -16 4 -17 -12 -7 -10 6 -28 18 -39 26 -19 13 -24 12 -58 -11 -40 -27 -43
-24 -25 26 11 32 10 35 -28 67 l-39 33 51 0 51 0 13 43 13 42 13 -30 c7 -16
13 -35 14 -42z"/>
<path d="M979 1093 l-15 -48 -63 -5 -64 -5 47 -33 c51 -37 52 -41 31 -102 -8
-24 -14 -45 -12 -47 2 -2 22 10 45 27 50 36 55 36 95 6 56 -41 58 -41 42 11
-8 26 -15 53 -15 60 0 6 21 27 46 45 l47 33 -64 5 -63 5 -15 48 c-8 26 -17 47
-21 47 -4 0 -13 -21 -21 -47z"/>
</g>
</svg>
