<?xml version="1.0" standalone="no"?>
<!DOCTYPE svg PUBLIC "-//W3C//DTD SVG 20010904//EN"
 "http://www.w3.org/TR/2001/REC-SVG-20010904/DTD/svg10.dtd">
<svg version="1.0" xmlns="http://www.w3.org/2000/svg"
 width="200.000000pt" height="200.000000pt" viewBox="0 0 200.000000 200.000000"
 preserveAspectRatio="xMidYMid meet">

<g transform="translate(0.000000,200.000000) scale(0.100000,-0.100000)"
fill="#000000" stroke="none">
<path d="M1020 1391 c0 -11 40 -22 52 -15 5 3 6 10 3 15 -8 12 -55 12 -55 0z"/>
<path d="M1351 1370 c-41 -42 -51 -84 -51 -228 0 -115 1 -124 20 -129 18 -5
20 -14 20 -88 0 -103 4 -115 41 -115 l29 0 0 295 c0 325 0 324 -59 265z m39
-165 l0 -165 -30 0 -30 0 0 126 c0 73 5 134 11 147 12 22 39 57 46 57 1 0 3
-74 3 -165z m0 -295 c0 -40 -4 -70 -10 -70 -6 0 -10 30 -10 70 0 40 4 70 10
70 6 0 10 -30 10 -70z"/>
<path d="M1095 1380 c-3 -5 14 -19 37 -31 24 -11 60 -37 80 -57 39 -37 58 -39
39 -3 -20 37 -144 110 -156 91z"/>
<path d="M587 1354 c-4 -4 -7 -40 -7 -80 0 -63 3 -76 25 -102 20 -24 25 -41
25 -84 0 -30 -5 -59 -10 -64 -7 -7 -10 -51 -8 -110 l3 -99 53 -3 52 -3 0 110
c0 67 -4 111 -10 111 -5 0 -10 23 -10 52 0 43 5 57 28 81 25 26 27 34 27 110
l0 82 -80 3 c-45 1 -84 0 -88 -4z m45 -86 c2 -35 8 -63 13 -63 6 0 11 28 13
63 2 34 7 62 12 62 5 0 10 -28 12 -62 2 -35 8 -63 13 -63 6 0 11 28 13 63 4
82 22 80 22 -3 0 -52 -4 -69 -20 -85 -24 -24 -48 -25 -78 -4 -19 13 -22 24
-22 85 0 86 18 92 22 7z m48 -183 c0 -30 -4 -55 -10 -55 -5 0 -10 25 -10 55 0
30 5 55 10 55 6 0 10 -25 10 -55z m20 -160 l0 -85 -30 0 -30 0 0 85 0 85 30 0
30 0 0 -85z"/>
<path d="M960 1331 c-74 -24 -138 -80 -164 -143 -9 -21 -16 -62 -16 -93 0
-137 102 -239 240 -239 78 0 131 24 182 84 128 149 31 381 -166 396 -28 2 -62
0 -76 -5z m178 -54 c129 -85 129 -279 0 -365 -36 -24 -51 -27 -119 -27 -70 0
-81 3 -121 30 -142 100 -118 317 42 384 14 6 55 10 91 8 52 -2 75 -8 107 -30z"/>
<path d="M923 1255 c-61 -37 -88 -86 -88 -160 0 -74 28 -124 89 -160 57 -33
136 -34 188 -2 128 78 128 246 0 324 -53 32 -133 31 -189 -2z m112 -14 c-14
-12 -65 -23 -65 -13 0 16 13 22 44 22 17 0 26 -4 21 -9z m53 -6 c29 -15 81
-68 83 -83 0 -4 2 -27 4 -52 5 -61 -18 -105 -72 -137 -37 -21 -53 -25 -98 -21
-30 3 -58 8 -62 11 -4 4 1 23 10 42 9 20 17 41 17 48 0 7 -23 25 -50 40 -28
16 -50 32 -50 36 0 11 42 47 64 55 11 3 16 12 12 21 -3 8 -1 17 4 20 6 4 10 2
10 -3 0 -12 66 10 82 26 15 15 9 15 46 -3z m-151 -30 c0 -8 -4 -15 -9 -15 -5
0 -20 -12 -33 -26 -16 -17 -25 -22 -25 -13 0 15 46 69 59 69 4 0 8 -7 8 -15z
m-21 -131 c49 -29 50 -33 29 -74 -19 -38 -28 -37 -55 0 -21 30 -39 100 -26
100 4 0 27 -12 52 -26z"/>
<path d="M1056 1215 c-3 -8 -12 -15 -21 -15 -8 0 -15 -9 -15 -20 0 -11 -5 -29
-11 -39 -7 -10 -9 -30 -5 -44 5 -22 12 -27 36 -27 28 0 30 -2 30 -39 0 -55 22
-70 55 -37 14 14 25 36 25 49 0 12 6 29 13 37 10 12 9 12 -5 1 -10 -7 -18 -23
-18 -35 0 -26 -39 -71 -50 -59 -5 4 -10 26 -12 48 -3 36 -6 40 -33 45 -22 4
-31 11 -33 29 -2 15 3 28 13 33 10 6 14 17 10 28 -4 13 0 20 14 25 19 6 38 35
22 35 -5 0 -11 -7 -15 -15z"/>
<path d="M1610 592 c0 -83 3 -112 13 -112 9 0 11 25 9 102 -5 143 -22 151 -22
10z"/>
<path d="M280 670 c0 -5 14 -10 30 -10 l30 0 0 -90 c0 -116 18 -118 22 -2 3
87 3 87 31 90 55 7 25 22 -43 22 -40 0 -70 -4 -70 -10z"/>
<path d="M920 670 c0 -5 14 -10 30 -10 l30 0 0 -90 c0 -53 4 -90 10 -90 6 0
10 37 10 90 l0 90 30 0 c17 0 30 5 30 10 0 6 -30 10 -70 10 -40 0 -70 -4 -70
-10z"/>
<path d="M710 654 c0 -9 -8 -23 -17 -30 -11 -8 -13 -13 -5 -14 7 0 12 -15 12
-39 0 -61 15 -91 45 -91 14 0 25 5 25 10 0 6 -9 10 -20 10 -18 0 -20 7 -20 55
0 48 2 55 20 55 11 0 20 5 20 10 0 6 -9 10 -20 10 -13 0 -20 7 -20 20 0 11 -4
20 -10 20 -5 0 -10 -7 -10 -16z"/>
<path d="M453 623 c-24 -9 -13 -21 19 -19 23 1 33 -4 36 -16 2 -13 -3 -18 -18
-18 -38 0 -60 -19 -60 -50 0 -23 5 -31 24 -36 13 -3 34 -1 45 6 15 8 21 8 21
0 0 -6 5 -8 11 -4 16 10 6 123 -12 135 -15 9 -46 11 -66 2z m55 -90 c-2 -22
-8 -28 -28 -28 -33 0 -39 32 -8 44 36 15 40 13 36 -16z"/>
<path d="M586 615 c-9 -9 -16 -20 -16 -24 0 -10 25 -32 54 -46 36 -18 26 -40
-16 -39 -39 1 -50 -9 -22 -20 74 -28 116 36 49 75 -45 27 -47 53 -5 47 19 -3
29 -1 27 6 -6 18 -53 18 -71 1z"/>
<path d="M806 611 c-12 -13 -16 -32 -14 -62 4 -51 36 -77 82 -65 33 8 26 25
-9 18 -27 -5 -55 12 -55 34 0 10 14 14 51 14 51 0 51 0 44 27 -4 16 -11 34
-17 40 -16 19 -63 16 -82 -6z m74 -21 c10 -18 8 -20 -30 -20 -41 0 -49 7 -28
28 18 18 46 14 58 -8z"/>
<path d="M1080 555 c0 -43 4 -75 10 -75 6 0 10 20 10 44 0 58 7 75 39 88 21 9
23 12 8 15 -10 3 -24 -1 -32 -7 -11 -9 -15 -9 -15 -1 0 6 -4 11 -10 11 -6 0
-10 -32 -10 -75z"/>
<path d="M1193 623 c-24 -9 -13 -21 19 -19 23 1 33 -4 36 -16 2 -13 -3 -18
-18 -18 -38 0 -60 -19 -60 -51 0 -36 21 -47 61 -32 18 7 29 8 29 2 0 -6 5 -7
11 -3 16 10 6 123 -12 135 -15 9 -46 11 -66 2z m55 -90 c-2 -22 -8 -28 -28
-28 -33 0 -39 32 -8 44 36 15 40 13 36 -16z"/>
<path d="M1328 555 c18 -50 32 -75 41 -73 13 3 66 137 57 146 -11 10 -24 -11
-36 -55 -7 -27 -16 -52 -20 -56 -4 -4 -15 20 -25 53 -10 33 -24 60 -31 60 -9
0 -6 -21 14 -75z"/>
<path d="M1470 610 c-12 -12 -20 -33 -20 -55 0 -56 44 -88 94 -69 26 10 18 21
-12 16 -28 -4 -62 18 -62 39 0 5 23 9 50 9 55 0 64 15 34 58 -19 28 -57 29
-84 2z m68 -12 c21 -21 13 -28 -28 -28 -38 0 -40 2 -30 20 12 22 40 26 58 8z"/>
</g>
</svg>
